<svg width="10" height="16" viewBox="0 0 10 16" fill="none" xmlns="http://www.w3.org/2000/svg">
<path opacity="0.7" d="M5.1123 4.45996C4.8584 4.20117 4.73633 3.88623 4.74609 3.51514C4.76074 3.13916 4.90479 2.81445 5.17822 2.54102C5.45166 2.26758 5.77393 2.12598 6.14502 2.11621C6.521 2.10156 6.83838 2.22119 7.09717 2.4751C7.35107 2.73389 7.4707 3.05127 7.45605 3.42725C7.44629 3.79834 7.30469 4.12061 7.03125 4.39404C6.75781 4.66748 6.43311 4.81152 6.05713 4.82617C5.68604 4.83594 5.37109 4.71387 5.1123 4.45996ZM0 4.71631C0 4.06201 0.12207 3.45166 0.366211 2.88525C0.610352 2.31396 0.947266 1.81348 1.37695 1.38379C1.81152 0.949219 2.31201 0.609863 2.87842 0.365723C3.44971 0.121582 4.06006 -0.000488281 4.70947 -0.000488281C5.35889 -0.000488281 5.96924 0.121582 6.54053 0.365723C7.11182 0.609863 7.6123 0.949219 8.04199 1.38379C8.47656 1.81348 8.81592 2.31396 9.06006 2.88525C9.3042 3.45166 9.42627 4.06201 9.42627 4.71631C9.42627 5.52197 9.24072 6.26416 8.86963 6.94287C8.49854 7.6167 7.99805 8.17334 7.36816 8.61279C6.73828 9.04736 6.03271 9.30859 5.25146 9.39648V14.7285C5.24658 14.8799 5.19043 15.0068 5.08301 15.1094C4.98047 15.2119 4.85596 15.2632 4.70947 15.2632C4.56299 15.2632 4.43604 15.2119 4.32861 15.1094C4.22607 15.0068 4.1748 14.8799 4.1748 14.7285V9.39648C3.39355 9.30859 2.68555 9.04736 2.05078 8.61279C1.4209 8.17334 0.92041 7.6167 0.549316 6.94287C0.183105 6.26416 0 5.52197 0 4.71631ZM4.70947 1.0542C4.03564 1.0542 3.42041 1.22021 2.86377 1.55225C2.31201 1.87939 1.87256 2.32129 1.54541 2.87793C1.21826 3.42969 1.05469 4.04248 1.05469 4.71631C1.05469 5.38525 1.21826 5.99805 1.54541 6.55469C1.87256 7.10645 2.31201 7.54834 2.86377 7.88037C3.42041 8.20752 4.03564 8.37109 4.70947 8.37109C5.3833 8.37109 5.99609 8.20752 6.54785 7.88037C7.10449 7.54834 7.54639 7.10645 7.87354 6.55469C8.20557 5.99805 8.37158 5.38525 8.37158 4.71631C8.37158 4.04248 8.20557 3.42969 7.87354 2.87793C7.54639 2.32129 7.10449 1.87939 6.54785 1.55225C5.99609 1.22021 5.3833 1.0542 4.70947 1.0542Z" fill="#6B635A"/>
</svg>
