<svg width="24" height="16" viewBox="0 0 24 16" fill="none" xmlns="http://www.w3.org/2000/svg">
<path d="M1.71429 9.32747H18.8571L13.2171 13.7173C13.0565 13.8413 12.9289 13.9889 12.8419 14.1515C12.7549 14.3141 12.7101 14.4885 12.7101 14.6646C12.7101 14.8408 12.7549 15.0152 12.8419 15.1778C12.9289 15.3404 13.0565 15.488 13.2171 15.612C13.5383 15.8605 13.9728 16 14.4257 16C14.8786 16 15.3131 15.8605 15.6343 15.612L22.9886 9.87453C23.6324 9.37637 23.9962 8.69979 24 7.99317C23.9917 7.2912 23.6283 6.62005 22.9886 6.12516L15.6343 0.387694C15.4744 0.264163 15.2849 0.166346 15.0765 0.0998259C14.8681 0.0333061 14.6449 -0.000612259 14.4197 7.62939e-06C14.1944 0.000627518 13.9715 0.0357733 13.7637 0.103437C13.5559 0.171102 13.3673 0.269959 13.2086 0.394367C13.0499 0.518775 12.9242 0.666297 12.8387 0.828508C12.7533 0.99072 12.7097 1.16444 12.7105 1.33976C12.7113 1.51508 12.7564 1.68856 12.8434 1.8503C12.9303 2.01204 13.0573 2.15886 13.2171 2.28239L18.8571 6.65888H1.71429C1.25963 6.65888 0.823591 6.79946 0.5021 7.04969C0.180609 7.29992 0 7.6393 0 7.99317C0 8.34705 0.180609 8.68643 0.5021 8.93666C0.823591 9.18689 1.25963 9.32747 1.71429 9.32747Z" fill="black" fill-opacity="0.7"/>
</svg>
