<svg width="110" height="110" viewBox="0 0 110 110" fill="none" xmlns="http://www.w3.org/2000/svg">
<path fill-rule="evenodd" clip-rule="evenodd" d="M55 15C32.9375 15 15 32.9375 15 55C15 77.0625 32.9375 95 55 95C77.0625 95 95 77.0625 95 55C95 32.9375 77.0625 15 55 15Z" fill="#DC2626"/>
<path fill-rule="evenodd" clip-rule="evenodd" d="M55 0C24.6641 0 0 24.6641 0 55C0 85.3359 24.6641 110 55 110C85.3359 110 110 85.3359 110 55C110 24.6641 85.3359 0 55 0Z" fill="#DC2626" fill-opacity="0.15"/>
<path d="M64.1386 45.862C62.9908 44.7149 61.1302 44.7146 59.9835 45.862L55.0002 50.8448L50.0165 45.8605C48.869 44.7134 47.0085 44.713 45.8614 45.8605C44.7135 47.0079 44.7135 48.8684 45.861 50.0159L50.8447 54.9999L45.861 59.9827C44.7131 61.1302 44.7131 62.9907 45.8606 64.1381C46.4345 64.7117 47.1863 64.9988 47.9385 64.9988C48.6903 64.9988 49.4425 64.7121 50.0161 64.1385L54.9998 59.1553L59.9835 64.1393C60.5575 64.7128 61.3093 65 62.0615 65C62.8133 65 63.5655 64.7132 64.139 64.1397C65.2869 62.9922 65.2869 61.1317 64.1394 59.9843L59.1557 55.0003L64.139 50.0178C65.2861 48.8704 65.2861 47.0095 64.1386 45.862Z" fill="white"/>
</svg>
