<svg width="26" height="26" viewBox="0 0 26 26" fill="none" xmlns="http://www.w3.org/2000/svg">
<path d="M11.916 4.33325H4.33268C3.75805 4.33325 3.20695 4.56153 2.80062 4.96786C2.39429 5.37418 2.16602 5.92528 2.16602 6.49992V21.6666C2.16602 22.2412 2.39429 22.7923 2.80062 23.1987C3.20695 23.605 3.75805 23.8333 4.33268 23.8333H19.4993C20.074 23.8333 20.6251 23.605 21.0314 23.1987C21.4377 22.7923 21.666 22.2412 21.666 21.6666V14.0833M20.041 2.70825C20.472 2.27728 21.0565 2.03516 21.666 2.03516C22.2755 2.03516 22.86 2.27728 23.291 2.70825C23.722 3.13923 23.9641 3.72376 23.9641 4.33325C23.9641 4.94275 23.722 5.52728 23.291 5.95825L12.9993 16.2499L8.66602 17.3333L9.74935 12.9999L20.041 2.70825Z" stroke="#1E1E1E" stroke-width="2" stroke-linecap="round" stroke-linejoin="round"/>
</svg>
