<svg width="16" height="16" viewBox="0 0 16 16" fill="none" xmlns="http://www.w3.org/2000/svg">
<rect width="16" height="16" rx="2" fill="#CFFA12"/>
<path d="M6.14063 4.5V12.5H4.72656V4.5H6.14063ZM10.6338 6.5V7.59375H7.08691V6.5H10.6338ZM7.97363 12.5V5.93359C7.97363 5.52995 8.05697 5.19401 8.22363 4.92578C8.3929 4.65755 8.61947 4.45703 8.90332 4.32422C9.18717 4.19141 9.50228 4.125 9.84863 4.125C10.0934 4.125 10.3109 4.14453 10.501 4.18359C10.6911 4.22266 10.8317 4.25781 10.9229 4.28906L10.6416 5.38281C10.5817 5.36458 10.5062 5.34635 10.415 5.32812C10.3239 5.30729 10.2223 5.29687 10.1104 5.29687C9.84733 5.29687 9.66113 5.36068 9.55176 5.48828C9.44499 5.61328 9.3916 5.79297 9.3916 6.02734V12.5H7.97363Z" fill="black"/>
</svg>
