<svg width="11" height="15" viewBox="0 0 11 15" fill="none" xmlns="http://www.w3.org/2000/svg">
<path opacity="0.7" d="M4.49023 3.69092H5.54492C5.69141 3.69092 5.81592 3.74463 5.91846 3.85205C6.021 3.95459 6.07227 4.0791 6.07227 4.22559V5.28027C6.07227 5.42676 6.021 5.55127 5.91846 5.65381C5.81592 5.75635 5.69141 5.80762 5.54492 5.80762H4.49023C4.34375 5.80762 4.21924 5.75635 4.1167 5.65381C4.01416 5.55127 3.96289 5.42676 3.96289 5.28027V4.22559C3.96289 4.0791 4.01416 3.95459 4.1167 3.85205C4.21924 3.74463 4.34375 3.69092 4.49023 3.69092ZM1.85352 6.32764H2.9082C3.05469 6.32764 3.1792 6.38135 3.28174 6.48877C3.38428 6.59131 3.43555 6.71582 3.43555 6.8623V7.91699C3.43555 8.06348 3.38428 8.18799 3.28174 8.29053C3.1792 8.39307 3.05469 8.44434 2.9082 8.44434H1.85352C1.70703 8.44434 1.58252 8.39307 1.47998 8.29053C1.37744 8.18799 1.32617 8.06348 1.32617 7.91699V6.8623C1.32617 6.71582 1.37744 6.59131 1.47998 6.48877C1.58252 6.38135 1.70703 6.32764 1.85352 6.32764ZM3.96289 9.49902V10.5537C3.96289 10.7002 4.01416 10.8247 4.1167 10.9272C4.22412 11.0298 4.35107 11.0811 4.49756 11.0811H5.55225C5.69873 11.0811 5.82324 11.0298 5.92578 10.9272C6.02832 10.8247 6.07959 10.7002 6.07959 10.5537V9.49902C6.07959 9.35254 6.02832 9.22803 5.92578 9.12549C5.82324 9.02295 5.69873 8.97168 5.55225 8.97168H4.49756C4.35107 8.97168 4.22412 9.02295 4.1167 9.12549C4.01416 9.22803 3.96289 9.35254 3.96289 9.49902ZM1.85352 3.69092H2.9082C3.05469 3.69092 3.1792 3.74463 3.28174 3.85205C3.38428 3.95459 3.43555 4.0791 3.43555 4.22559V5.28027C3.43555 5.42676 3.38428 5.55127 3.28174 5.65381C3.1792 5.75635 3.05469 5.80762 2.9082 5.80762H1.85352C1.70703 5.80762 1.58252 5.75635 1.47998 5.65381C1.37744 5.55127 1.32617 5.42676 1.32617 5.28027V4.22559C1.32617 4.0791 1.37744 3.95459 1.47998 3.85205C1.58252 3.74463 1.70703 3.69092 1.85352 3.69092ZM1.85352 8.97168H2.9082C3.05469 8.97168 3.1792 9.02539 3.28174 9.13281C3.38428 9.23535 3.43555 9.35986 3.43555 9.50635V10.561C3.43555 10.7075 3.38428 10.832 3.28174 10.9346C3.1792 11.0371 3.05469 11.0884 2.9082 11.0884H1.85352C1.70703 11.0884 1.58252 11.0371 1.47998 10.9346C1.37744 10.832 1.32617 10.7075 1.32617 10.561V9.50635C1.32617 9.35986 1.37744 9.23535 1.47998 9.13281C1.58252 9.02539 1.70703 8.97168 1.85352 8.97168ZM6.59961 6.8623V7.91699C6.59961 8.06348 6.65088 8.18799 6.75342 8.29053C6.86084 8.39307 6.98779 8.44434 7.13428 8.44434H8.18896C8.33545 8.44434 8.45996 8.39307 8.5625 8.29053C8.66504 8.18799 8.71631 8.06348 8.71631 7.91699V6.8623C8.71631 6.71582 8.66504 6.59131 8.5625 6.48877C8.45996 6.38623 8.33545 6.33496 8.18896 6.33496H7.13428C6.98779 6.33496 6.86084 6.38623 6.75342 6.48877C6.65088 6.59131 6.59961 6.71582 6.59961 6.8623ZM6.59961 4.21826V5.27295C6.59961 5.41943 6.65088 5.54395 6.75342 5.64648C6.86084 5.74902 6.98779 5.80029 7.13428 5.80029H8.18896C8.33545 5.80029 8.45996 5.74902 8.5625 5.64648C8.66504 5.54395 8.71631 5.41943 8.71631 5.27295V4.21826C8.71631 4.07178 8.66504 3.94727 8.5625 3.84473C8.45996 3.74219 8.33545 3.69092 8.18896 3.69092H7.13428C6.98779 3.69092 6.86084 3.74219 6.75342 3.84473C6.65088 3.94727 6.59961 4.07178 6.59961 4.21826ZM3.96289 6.8623V7.91699C3.96289 8.06348 4.01416 8.18799 4.1167 8.29053C4.22412 8.39307 4.35107 8.44434 4.49756 8.44434H5.55225C5.69873 8.44434 5.82324 8.39307 5.92578 8.29053C6.02832 8.18799 6.07959 8.06348 6.07959 7.91699V6.8623C6.07959 6.71582 6.02832 6.59131 5.92578 6.48877C5.82324 6.38623 5.69873 6.33496 5.55225 6.33496H4.49756C4.35107 6.33496 4.22412 6.38623 4.1167 6.48877C4.01416 6.59131 3.96289 6.71582 3.96289 6.8623ZM7.12695 8.97168H8.18164C8.32812 8.97168 8.45264 9.02539 8.55518 9.13281C8.65771 9.23535 8.70898 9.35986 8.70898 9.50635V10.561C8.70898 10.7075 8.65771 10.832 8.55518 10.9346C8.45264 11.0371 8.32812 11.0884 8.18164 11.0884H7.12695C6.98047 11.0884 6.85596 11.0371 6.75342 10.9346C6.65088 10.832 6.59961 10.7075 6.59961 10.561V9.50635C6.59961 9.35986 6.65088 9.23535 6.75342 9.13281C6.85596 9.02539 6.98047 8.97168 7.12695 8.97168ZM1.58984 -0.000488281H8.45264C8.88721 -0.000488281 9.2583 0.155762 9.56592 0.468262C9.87842 0.775879 10.0347 1.14697 10.0347 1.58154V13.1978C10.0347 13.6323 9.87842 14.0034 9.56592 14.311C9.2583 14.6235 8.88721 14.7798 8.45264 14.7798H1.58984C1.15039 14.7798 0.774414 14.6235 0.461914 14.311C0.154297 14.0034 0.000488281 13.6323 0.000488281 13.1978V1.58154C0.000488281 1.14697 0.154297 0.775879 0.461914 0.468262C0.774414 0.155762 1.15039 -0.000488281 1.58984 -0.000488281ZM9.50732 2.10889H0.535156V12.6704H9.50732V2.10889Z" fill="#6B635A"/>
</svg>
