<svg width="36" height="38" viewBox="0 0 36 38" fill="none" xmlns="http://www.w3.org/2000/svg">
<path d="M4.5 9.49935H7.5M7.5 9.49935H31.5M7.5 9.49935V31.666C7.5 32.5059 7.81607 33.3113 8.37868 33.9052C8.94129 34.4991 9.70435 34.8327 10.5 34.8327H25.5C26.2956 34.8327 27.0587 34.4991 27.6213 33.9052C28.1839 33.3113 28.5 32.5059 28.5 31.666V9.49935M12 9.49935V6.33268C12 5.49283 12.3161 4.68738 12.8787 4.09351C13.4413 3.49965 14.2044 3.16602 15 3.16602H21C21.7956 3.16602 22.5587 3.49965 23.1213 4.09351C23.6839 4.68738 24 5.49283 24 6.33268V9.49935" stroke="#EAEAEA" stroke-width="4" stroke-linecap="round" stroke-linejoin="round"/>
</svg>
