<svg width="151" height="141" viewBox="0 0 151 141" fill="none" xmlns="http://www.w3.org/2000/svg">
<rect width="151" height="141" rx="32" fill="#CFFA12"/>
<path d="M63.5142 37.5455V103H51.9446V37.5455H63.5142ZM100.276 53.9091V62.858H71.2566V53.9091H100.276ZM78.5115 103V49.2749C78.5115 45.9723 79.1934 43.2237 80.557 41.0291C81.9419 38.8345 83.7956 37.1939 86.1181 36.1072C88.4405 35.0206 91.0186 34.4773 93.8525 34.4773C95.8553 34.4773 97.6344 34.6371 99.1898 34.9567C100.745 35.2763 101.896 35.5639 102.642 35.8196L100.34 44.7685C99.8503 44.6193 99.2324 44.4702 98.4867 44.321C97.7409 44.1506 96.91 44.0653 95.9938 44.0653C93.8418 44.0653 92.3184 44.5874 91.4235 45.6314C90.5499 46.6541 90.1131 48.1243 90.1131 50.0419V103H78.5115Z" fill="black"/>
</svg>
